<svg xmlns="http://www.w3.org/2000/svg" viewBox="0 0 512 512">
  <path fill="#646cff" d="M335.5 4h259l14.6 30.7L463.3 192 451.8 268.5l-14.5-28.9L392 224h-88l-33.3 16.6-14.5 28.9L47.3 34.7 62 4h259c6.8 0 12.8 4.2 15.2 10.6l29.8 77.6c2.6 6.8-.2 14.7-7 18.3L327 163.2l-12.2 76.9c-1.4 8.8-10.7 15.5-20 14.5l-78.6-8.3-28.6 71c-3 7.5-11 11.7-19 10.1L134 327.6l-59.3 17c-8.2 2.4-13.2 11.1-11.1 19.5l21.3 84.7c2.2 8.8 11.4 14.8 20.2 13.2l79.7-14.4 45.3 53.2c4.2 4.9 11 5.6 16 1.5l56-46.6 68.4 21.3c7.3 2.3 15.2-1.7 17.5-9l24.3-78c2.4-7.8-1.6-16.2-9.2-19.2L335.5 4zM100.3 464L54.6 268l45.2-11.2L142 464H100.3zM175 464l-36.4-160-59.7 117.5L131 464h44zm272-160l-60 14.9-36.5-152.8 48-13.5 33.3 69.7 15.2 81.7z"/>
</svg>
