<svg xmlns="http://www.w3.org/2000/svg" viewBox="-10.5 -9.45 21 18.9" fill="none" stroke="#646cff" stroke-width="2" stroke-linecap="round" stroke-linejoin="round">
  <circle cx="0" cy="0" r="2" fill="#646cff"/>
  <g stroke-width="1" stroke="#646cff">
    <path d="M0 -5V0M0 -5 C -4.5 -5 -7.5 -2 -7.5 3 C -7.5 6 -4.5 9 0 9"/>
    <path d="M0 -5 C -4.5 -5 -7.5 -2 -7.5 3 C -7.5 6 -4.5 9 0 9" transform="rotate(60)"/>
    <path d="M0 -5 C -4.5 -5 -7.5 -2 -7.5 3 C -7.5 6 -4.5 9 0 9" transform="rotate(120)"/>
    <path d="M0 -5 C -4.5 -5 -7.5 -2 -7.5 3 C -7.5 6 -4.5 9 0 9" transform="rotate(180)"/>
    <path d="M0 -5 C -4.5 -5 -7.5 -2 -7.5 3 C -7.5 6 -4.5 9 0 9" transform="rotate(240)"/>
    <path d="M0 -5 C -4.5 -5 -7.5 -2 -7.5 3 C -7.5 6 -4.5 9 0 9" transform="rotate(300)"/>
  </g>
</svg>
